<svg xmlns="http://www.w3.org/2000/svg" width="505" height="223" viewBox="0 0 505 223">
  <defs>
    <style>
      .cls-1, .cls-2, .cls-3, .cls-4 {
        fill: #ffe41d;
      }

      .cls-1, .cls-2, .cls-4 {
        stroke: #ffe41d;
      }

      .cls-1 {
        stroke-width: 2px;
      }

      .cls-2, .cls-4 {
        stroke-width: 6px;
      }

      .cls-2 {
        stroke-dasharray: 48 24;
      }

      .cls-2, .cls-3, .cls-4 {
        fill-rule: evenodd;
      }
    </style>
  </defs>
  <circle class="cls-1" cx="56" cy="159" r="20"/>
  <path class="cls-2" d="M77,133C181.961,3.333,293.425,197,471,85,293.755,196.667,181.961,4,77,133Z"/>
  <path id="MANS" class="cls-3" d="M127.2,64.521q1.442,2.293,2.861,4.6c1.437,1.741,3,2.359,4.732,1.862a5.031,5.031,0,0,0,3.506-3.7,32.252,32.252,0,0,0,1.06-5.506q0.291-2.759.608-5.519c0.86-5.791,1.542-10.033,1.934-12.722,2.365,5.946,4.3,10.483,5.861,13.6q1.449,3.168,2.866,6.348c1.537,2.661,3.293,3.771,5.309,3.345a4.548,4.548,0,0,0,2.585-1.57,3.679,3.679,0,0,0,.864-3.023,84.7,84.7,0,0,0-4.087-8.859,159.271,159.271,0,0,1-7.9-19.392,39.965,39.965,0,0,0-2.723-6.623c-1.667-2.826-3.663-3.975-5.944-3.426-2.365.57-3.837,2.332-4.387,5.248q-0.187,3.4-.345,6.788-0.837,10.566-2.186,19.642A156.428,156.428,0,0,1,124.2,41.35c-2.146-4.626-3.853-7.6-5.081-8.927a4.309,4.309,0,0,0-4.8-1.2,5.634,5.634,0,0,0-3.559,3.254c-0.718,1.633-.986,4.52-0.779,8.648q0.306,4.47.684,8.921c0.051,0.737-.027,4.6-0.068,11.561a37.963,37.963,0,0,0,1.352,11.31,3.738,3.738,0,0,0,1.721,2.205,3.826,3.826,0,0,0,3.352.191c1.993-.709,2.992-2.454,3.019-5.271q-0.368-3.2-.7-6.437c-0.143-6.413-.128-11.236-0.044-14.454q3.888,7.076,7.889,13.376h0Zm88.789-6.636a3.6,3.6,0,0,0,1.25-2.753,10.4,10.4,0,0,0-1.008-3.657,37.983,37.983,0,0,1-1.467-3.736c-1.7-7-3.247-13.205-4.556-18.622-0.926-4.026-1.631-7.042-2.083-9.053-0.815-2.491-2.4-3.7-4.721-3.608-1.213.054-4.419,3.765-9.176,11.279a168.748,168.748,0,0,0-8.569,15.243c-1.793.7-2.683,1.511-2.681,2.421a3.221,3.221,0,0,0,.5,1.6c-2.357,5.864-3.39,9.292-3.3,10.248a3.324,3.324,0,0,0,1.509,2.54,4.185,4.185,0,0,0,2.887.737,4.017,4.017,0,0,0,3.277-2.392c1.832-4.373,3.174-7.623,3.932-9.772a59.661,59.661,0,0,1,7.015-1.24c3.261-.4,5.612-0.7,7.05-0.966a48.068,48.068,0,0,0,2.794,7.625c1.585,3.416,3.087,5.144,4.571,5.181a3.9,3.9,0,0,0,2.781-1.073h0Zm-12-18.186c-0.574.1-1.97,0.262-4.186,0.517a28.551,28.551,0,0,0-4.141.713c2.486-4.546,4.53-8.109,6.03-10.718,0.992,3.888,1.749,7.052,2.3,9.488h0Zm82.785,1.168q0.871-4.07.933-4.375c1.869-9.307,1.1-14.356-2.306-15.068-3.047-.63-4.795.37-5.235,2.937a21.46,21.46,0,0,0-.223,3.131q-0.046,2.271-.128,3.092-0.534,4.86-2.955,18.616-0.588,3.349-.773,4.236c-7.1-9.264-14.528-20.533-22.791-33.76-1.64-2.613-3.268-3.992-4.832-4.138a5.632,5.632,0,0,0-3.829,1,3.828,3.828,0,0,0-1.851,2.9q-0.125,1.7,0,5.093a49.992,49.992,0,0,1-.01,5.093q-0.133,1.782-.314,5.382t-0.317,5.381q-0.127,1.669-.5,5t-0.493,5q-0.086,1.132-.443,3.408t-0.44,3.408a3.845,3.845,0,0,0,.892,2.831,4.448,4.448,0,0,0,3.171,1.558c2.675,0.251,4.288-2.373,4.844-7.925q0.22-2.229.562-6.728t0.558-6.729q0.163-1.665,1.067-8.985c8.647,12.83,15.6,23.261,21.665,31.088,1.385,1.784,2.706,2.81,4,3.077,2.321,0.481,3.895-.413,4.74-2.721a32.158,32.158,0,0,0,1.345-4.283q0.684-3.444,3.662-17.515h0ZM330.6,79.379c6.072-.2,10.036-2.41,11.787-6.932a11.57,11.57,0,0,0-.631-10.452c-1.716-2.932-4.66-5.431-8.811-7.384q-3.586-1.6-7.233-3.125a9.167,9.167,0,0,1-2.89-2.056,2.139,2.139,0,0,1-.552-2.057c0.4-1.313,1.938-2.133,4.646-2.405a16.755,16.755,0,0,1,7.758,1.011,24.5,24.5,0,0,1,3.973,2.16,28.564,28.564,0,0,0,3.915,2.2,4.262,4.262,0,0,0,3.438.072,3.385,3.385,0,0,0,1.959-1.976c0.481-1.279-.84-3.181-4.034-5.632a28.581,28.581,0,0,0-6.818-4.07,22.221,22.221,0,0,0-14.95-.5c-4.968,1.564-7.909,4.191-8.942,7.709-0.833,2.8.346,5.5,3.447,8.174a28.45,28.45,0,0,0,8.306,4.841c4.185,1.633,6.867,3.044,8.072,4.106a4.706,4.706,0,0,1,1.339,5.58c-0.583,1.63-2.65,2.483-6.163,2.659a24.825,24.825,0,0,1-9.781-1.391c-3.674-1.3-5.718-3.185-6.139-5.761a4.209,4.209,0,0,0-2.992-3.688,3.9,3.9,0,0,0-3.263.221,3.968,3.968,0,0,0-1.821,2.535c-0.59,2.243.033,4.556,1.808,6.961,2.1,2.885,5.4,5.063,9.949,6.671A39.786,39.786,0,0,0,330.6,79.379h0Z"/>
  <path id="CEĻŠ" class="cls-3" d="M167.808,129.941a5.027,5.027,0,0,0,2-2.164,33.892,33.892,0,0,0,2.24-5.64c0.658-2.356.137-3.935-1.566-4.767a3.991,3.991,0,0,0-3.26-.131,12.663,12.663,0,0,0-1.434-1.035q-0.843-.531-1.937-1.1c-4.31-2.229-9.915-1.817-17.128,1.068-8.493,3.4-14.712,7.817-18.331,13.708a15.822,15.822,0,0,0-2.042,12.2,15.311,15.311,0,0,0,7.874,10.335c5.285,2.9,11.708,3.516,18.981,1.73a4.187,4.187,0,0,0,.9-7.85,7.879,7.879,0,0,0-3.963-.189,55.414,55.414,0,0,1-5.575.53,13.241,13.241,0,0,1-6.26-1.536,7,7,0,0,1-3.542-4.742,8.054,8.054,0,0,1,.96-6.115c2.487-4.259,7.181-7.626,13.876-10.382,4.784-1.977,8.183-2.465,10.322-1.359a6.928,6.928,0,0,1,1.914,1.224,3.147,3.147,0,0,1,.255,2c-0.165,2.108.541,3.556,2.1,4.321a3.6,3.6,0,0,0,3.613-.11h0ZM220.38,142.9a4.427,4.427,0,0,0,1.842-2.421,3.779,3.779,0,0,0-1.271-4.426c-2.318-1.911-5.677-3.539-10.086-4.989a40.918,40.918,0,0,0-5.328-1.333q-2.889-.532-6.239-0.818a3.626,3.626,0,0,0-1.816-1.5c-2.415-.917-4.221.044-5.437,2.927a25.862,25.862,0,0,0-.974,3.048,26.4,26.4,0,0,1-.97,3.05q-1.585,3.786-5.32,11.22t-5.367,11.234c-2.588,6.12-3.221,10.521-1.836,13.191,1.253,2.413,5.121,4.875,11.657,7.111,6.316,2.15,10.593,3.229,12.741,3.473,2.517,0.283,4.131-.687,4.842-2.872a3.71,3.71,0,0,0-.412-3.454,4.723,4.723,0,0,0-2.629-1.845,13.923,13.923,0,0,0-1.784-.353,12.952,12.952,0,0,1-1.811-.371c-1.227-.387-3.084-0.945-5.564-1.706s-4.322-1.371-5.535-1.8c-2.25-.792-3.427-1.368-3.543-1.694q-0.368-1.02,1.864-6.64,0.887-2.236,2.528-5.806c5.552,1.526,9.75,2.49,12.558,3.055,3.117,0.7,5.463,1.2,7.03,1.546,2.532,0.416,4.177-.559,4.929-2.881a3.89,3.89,0,0,0-.236-3.257,4.086,4.086,0,0,0-2.471-1.937c-0.952-.289-3.273-0.781-6.95-1.565-6.448-1.393-10.181-2.377-11.242-2.668q3.212-7.428,4.708-11.248,2.86,0.252,5.292.7A33.837,33.837,0,0,1,208,138.976a34.45,34.45,0,0,1,8.076,3.952,4.089,4.089,0,0,0,1.086.515,3.648,3.648,0,0,0,3.22-.542h0Zm44.452,45.22a4.006,4.006,0,0,0-.612-2.905,3.824,3.824,0,0,0-2.9-1.784,4.934,4.934,0,0,0-1.392.032c-8.024,1.223-14.544,1.294-19.406.459q1.464-4.872,2.291-7.212,3.945-13.265,7.6-29.206a4.108,4.108,0,0,0-.43-3.106,3.5,3.5,0,0,0-2.458-1.724,3.781,3.781,0,0,0-3.018.641,4.493,4.493,0,0,0-1.816,2.662q-4.031,15.834-8.095,28.587c-2.1,6.54-3.121,9.637-3.033,9.3-1.109,4.255.875,6.959,6,7.951a64.377,64.377,0,0,0,11.891.905,48.074,48.074,0,0,0,12.011-1.164,4.207,4.207,0,0,0,3.375-3.436h0Zm-12.4,15.037a7.4,7.4,0,0,0,3.426-5.247c0.453-2.41-.5-4.757-2.79-7.079a13.4,13.4,0,0,0-7.4-4.015,3.722,3.722,0,0,0-2.695.473,3.08,3.08,0,0,0-1.465,1.961,2.777,2.777,0,0,0,1.49,3.04q1.836,0.978,3.689,1.937a3.751,3.751,0,0,1,1.4,1.253,2.047,2.047,0,0,1,.22,1.461,1.226,1.226,0,0,1-.667.917,2.62,2.62,0,0,1-1.461.134,7.412,7.412,0,0,1-2.628-1.111,7.892,7.892,0,0,0-2.708-1.147c-2.276-.412-3.6.182-3.991,1.816-0.358,1.512.516,2.974,2.656,4.359a14.909,14.909,0,0,0,5.766,2.235A10.3,10.3,0,0,0,252.429,203.158ZM320,194.145c6.378-2.916,9.482-7.093,9.488-12.3,0.009-4.285-1.451-7.544-4.289-9.832-2.582-2.06-6.063-3.183-10.484-3.45q-3.8-.147-7.61-0.378a7.23,7.23,0,0,1-3.194-1.079,2.08,2.08,0,0,1-.943-1.915c0.112-1.479,1.4-2.818,3.824-4.055a16.355,16.355,0,0,1,7.272-1.907,21.82,21.82,0,0,1,4.115.524,19.36,19.36,0,0,0,4.1.473,4.021,4.021,0,0,0,3.047-1.5,4.358,4.358,0,0,0,1.086-2.841c0.017-1.479-1.7-2.682-5.1-3.693a23.779,23.779,0,0,0-6.878-1.2,22.058,22.058,0,0,0-13.28,4.862c-4.208,3.186-6.613,6.695-7.066,10.64-0.373,3.129,1.191,5.629,4.785,7.415a21.991,21.991,0,0,0,9.283,2.1c4.532,0.1,7.549.369,9.043,0.92,2.1,0.755,3.125,2.393,3.059,4.943-0.049,1.858-1.832,3.64-5.4,5.27a24.694,24.694,0,0,1-10.631,2.333c-4.237-.04-6.848-1.374-7.811-3.9a4.055,4.055,0,0,0-3.839-2.944,4.521,4.521,0,0,0-3.382,1.1,4.766,4.766,0,0,0-1.529,3.106c-0.276,2.484.763,4.756,3.181,6.775,2.864,2.422,7.06,3.723,12.522,3.779A38.931,38.931,0,0,0,320,194.145h0Zm6.556-57.657a2.7,2.7,0,0,0-.917-2.077,2.936,2.936,0,0,0-2.2-.813,3.5,3.5,0,0,0-2.034.833c-2.379,2.02-4.19,3.533-5.39,4.565a32.218,32.218,0,0,1-3.941-4.935,2.807,2.807,0,0,0-2.534-1.518,3.453,3.453,0,0,0-2.242.8,2.906,2.906,0,0,0-1.181,2.112c-0.064.89,0.594,2.27,2.014,4.124q1.613,1.866,3.264,3.742Q312.2,144.261,313,145.2a3.25,3.25,0,0,0,2.34,1c1.1-.022,4.579-2.46,10.115-7.5a2.984,2.984,0,0,0,1.1-2.206h0Z"/>
  <path id="Triangle_1" data-name="Triangle 1" class="cls-4" d="M477.945,82.686l-56.37,43.685-13.89-32.953Z"/>
</svg>
