<svg id="ikona" xmlns="http://www.w3.org/2000/svg" width="2388" height="1635" viewBox="0 0 2388 1635">
  <defs>
    <style>
      .cls-1, .cls-3 {
        fill: #ffe41d;
      }

      .cls-1, .cls-2, .cls-3 {
        stroke: #ffe41d;
        fill-rule: evenodd;
      }

      .cls-1 {
        stroke-width: 2px;
      }

      .cls-2 {
        fill: none;
        stroke-dasharray: 586.36 293.18;
      }

      .cls-2, .cls-3 {
        stroke-width: 146.59px;
      }
    </style>
  </defs>
  <path class="cls-1" d="M374.639,999.027C543.482,1032.69,652.26,1200.91,617.6,1374.76s-199.628,287.5-368.47,253.84S-28.489,1426.72,6.169,1252.87,205.8,965.368,374.639,999.027Z"/>
  <path class="cls-2" d="M302.98,1361.05s175.7-985.335,570.769-906.576S890.936,1243.25,1248.9,1325.1c352.29,65.57,278.36-642.932,732.86-918.534-456.72,275.864-383.83,984.234-729.3,916.084-360.254-71.06,16.97-792.458-378.1-871.217S302.98,1361.05,302.98,1361.05h0Z"/>
  <path id="Triangle_1" data-name="Triangle 1" class="cls-3" d="M2259.36,122.089L2002.44,759.48,1620.96,334.5Z"/>
</svg>
